<?xml version="1.0" encoding="UTF-8" standalone="no"?>
<!-- Generator: Adobe Illustrator 25.0.0, SVG Export Plug-In . SVG Version: 6.00 Build 0)  -->

<svg
   version="1.1"
   id="Layer_1"
   sodipodi:docname="menu.svg"
   x="0px"
   y="0px"
   viewBox="0 0 5669.3 5669.3"
   style="enable-background:new 0 0 5669.3 5669.3;"
   xml:space="preserve"
   inkscape:version="1.1.2 (0a00cf5339, 2022-02-04)"
   xmlns:inkscape="http://www.inkscape.org/namespaces/inkscape"
   xmlns:sodipodi="http://sodipodi.sourceforge.net/DTD/sodipodi-0.dtd"
   xmlns="http://www.w3.org/2000/svg"
   xmlns:svg="http://www.w3.org/2000/svg"><defs
   id="defs11" /><sodipodi:namedview
   id="namedview9"
   pagecolor="#505050"
   bordercolor="#eeeeee"
   borderopacity="1"
   inkscape:pageshadow="0"
   inkscape:pageopacity="0"
   inkscape:pagecheckerboard="0"
   showgrid="false"
   inkscape:zoom="0.046742986"
   inkscape:cx="791.56261"
   inkscape:cy="1989.6033"
   inkscape:window-width="1366"
   inkscape:window-height="712"
   inkscape:window-x="1920"
   inkscape:window-y="340"
   inkscape:window-maximized="1"
   inkscape:current-layer="Layer_1" />
<style
   type="text/css"
   id="style2">
	.st0{fill:#FFFFFF;stroke:#FFFFFF;stroke-width:18;stroke-miterlimit:10;}
</style>
<g
   id="g6"
   transform="matrix(0.9073581,0,0,0.9073581,262.60628,262.5981)">
	<path
   class="st0"
   d="m 4903.2,4776.5 h -515.7 c -35.6,0 -69,-18.7 -86.8,-50.2 L 3581.8,3482.1 3208.6,2834.4 2921.8,2337.9 c -38.8,-66.7 -135.6,-66.7 -174,0 l -287.3,496.5 -374.1,647.7 -718.4,1244.2 c -17.8,31 -50.7,50.2 -86.8,50.2 H 765.5 c -77.7,0 -125.6,-83.6 -86.8,-150.3 L 1339.2,3482 1684,2885 c 18.3,-31.1 18.3,-69.4 0,-100.5 l -344.4,-597 -374.1,-648.1 -286.8,-496.5 c -38.8,-66.7 9.1,-150.3 86.8,-150.3 h 515.7 c 36.1,0 69.4,18.7 87.2,50.2 l 344.8,597 287.3,496.9 c 38.4,67.2 135.7,67.2 173.6,0 l 287.3,-496.9 286.4,-497.4 c 38.4,-66.7 135.7,-66.7 174,0 l 286.8,496.9 374.1,647.2 374.1,647.7 374.1,647.2 660.4,1144.2 c 37.5,67.3 -10.5,150.9 -88.1,150.9 z"
   id="path4" />
</g>
</svg>
